<?xml version="1.0" encoding="UTF-8"?>
<svg id="Layer_1" xmlns="http://www.w3.org/2000/svg" version="1.1" viewBox="0 0 1030.7 1028.6">
  <!-- Generator: Adobe Illustrator 29.1.0, SVG Export Plug-In . SVG Version: 2.1.0 Build 142)  -->
  <defs>
    <style>
      .st0 {
        fill: #efece1;
      }

      .st1 {
        fill: #0b0c0b;
      }
    </style>
  </defs>
  <path class="st0" d="M477.2.5c360.2-27.4,628.7,312.6,532.6,659.3-97.8,352.9-546.3,488.9-825.4,249.5C-167.5,607.6,19.2,35.4,477.2.5ZM900.3,302.8c-65.7,14.4-129.9,41.4-197.8,46-86.8,5.9-106.8-18.2-135.3-95l-47-169.9c-7.9,58.5-21.4,119.6-42.2,174.8-30.1,79.8-51.8,96.6-140.2,90.1-66.8-4.9-129.2-32.2-193.9-46,41.8,44.2,192.1,155.5,192.1,216.9,0,43.1-79.7,114.9-111.4,142.1l-76.8,59.4c36.7-2.1,72.6-19,108.9-27.3,60-13.8,157.3-37.1,197.6,22.3,38.6,56.9,48.5,154.8,67.8,220.1,14.9-36.9,19.3-79.7,30.7-119,14.5-49.9,35.1-131.7,96-138.3,83.3-9,164.3,23.7,243.8,42.2-42.7-45.6-182.8-137.2-180.6-205.3.9-28.2,43.9-77.5,63.5-98.1,38.4-40.4,86.9-74,124.8-115.1Z"/>
  <path class="st1" d="M900.3,302.8c-37.9,41.1-86.4,74.7-124.8,115.1-19.6,20.6-62.6,69.9-63.5,98.1-2.2,68.1,137.9,159.6,180.6,205.3-79.5-18.5-160.5-51.2-243.8-42.2-60.9,6.6-81.5,88.3-96,138.3-11.4,39.3-15.8,82.1-30.7,119-19.3-65.4-29.2-163.3-67.8-220.1-40.3-59.4-137.6-36.1-197.6-22.3-36.3,8.4-72.3,25.2-108.9,27.3l76.8-59.4c31.7-27.2,111.4-99.1,111.4-142.1,0-61.4-150.3-172.8-192.1-216.9,64.7,13.8,127.2,41.1,193.9,46,88.4,6.4,110.1-10.3,140.2-90.1,20.8-55.2,34.3-116.3,42.2-174.8l47,169.9c28.5,76.8,48.5,100.9,135.3,95,67.9-4.6,132.1-31.6,197.8-46Z"/>
</svg>