<?xml version="1.0" encoding="UTF-8"?>
<svg id="Layer_1" xmlns="http://www.w3.org/2000/svg" version="1.1" viewBox="0 0 1030.7 1028.6">
  <!-- Generator: Adobe Illustrator 29.1.0, SVG Export Plug-In . SVG Version: 2.1.0 Build 142)  -->
  <defs>
    <style>
      .st0 {
        fill: #384856;
      }

      .st1 {
        fill: #04070a;
      }
    </style>
  </defs>
  <path class="st0" d="M1027.1,444.3c.7,11-3.6,26.8,3.8,34.6v76.8c-7.2,6.5-3.3,21-3.8,30.7-7.6,138.8-116.2,289.1-230.7,362.6-267.2,171.5-628.3,60-752.9-229.4C-142.1,288.6,296.8-143.5,727.5,43.2c150.3,65.1,288.9,234.3,299.6,401.2ZM397.4,183.2C194.9,233.9,46.1,422.6,111.3,636.4c42.6,139.6,202.4,241.6,342.2,260.6,168.3,22.9,380.8-72.5,447.5-235,88.8-216.3-62.5-425.7-273.3-478.8,9.6,24.4,26.4,44.7,36.4,69.2,81.4,199.9-163.6,323.8-285.9,182.2-67.5-78.2-39.7-178.3,19.1-251.4Z"/>
  <path class="st1" d="M397.4,183.2c-58.8,73.1-86.6,173.2-19.1,251.4,122.3,141.6,367.3,17.7,285.9-182.2-10-24.5-26.8-44.8-36.4-69.2,210.8,53,362.1,262.5,273.3,478.8-66.7,162.5-279.3,257.9-447.5,235-139.8-19-299.6-121-342.2-260.6C46.1,422.6,194.9,233.9,397.4,183.2Z"/>
</svg>