<?xml version="1.0" encoding="UTF-8"?>
<svg id="Layer_1" xmlns="http://www.w3.org/2000/svg" version="1.1" viewBox="0 0 1030.7 1028.6">
  <!-- Generator: Adobe Illustrator 29.1.0, SVG Export Plug-In . SVG Version: 2.1.0 Build 142)  -->
  <defs>
    <style>
      .st0 {
        fill: #efece1;
      }

      .st1 {
        fill: #1b1a17;
      }

      .st2 {
        fill: #b69b33;
      }

      .st3 {
        fill: #9aa1a8;
      }
    </style>
  </defs>
  <path class="st0" d="M551.5,1027v3.8h-73v-3.8c22.5,1.2,50.5,1.2,73,0Z"/>
  <path class="st2" d="M578.4,1023.1c-7.2.6-18.7-3-23,3.8-1.3,0-2.6,0-3.8,0-22.5,1.2-50.5,1.2-73,0-1.3,0-2.6,0-3.8,0-4.3-6.8-15.8-3.3-23-3.8C63.5,974.9-135.2,526,99.1,207.8,318.2-89.8,773.3-67.4,960.1,251.6c189.5,323.4-14.4,723.7-381.7,771.5ZM693.6,228.2c11.3-13.5-65.6-64.8-76.7-71.1C344.3,1.9,18.8,172,114.1,502.5c87.4,303.1,525.1,597.8,771.3,280.5,5.8-7.5,13.9-15.8,11-25.7l-469.7-433-4.7,12.4,79.7,298.6c-9.1,6.6-63.8-27.9-74.2-35.2-153.6-108.6-202.4-373,28-419.9,86.6-17.7,163.3,5.9,238.2,48.1Z"/>
  <path class="st3" d="M474.7,1027c-10.1-.7-16.1-3-23-3.8,7.2.6,18.7-3,23,3.8Z"/>
  <path class="st3" d="M578.4,1023.1c-7.2.9-12.8,3.2-23,3.8,4.3-6.8,15.8-3.3,23-3.8Z"/>
  <path class="st1" d="M693.6,228.2c-74.8-42.3-151.5-65.8-238.2-48.1-230.3,47-181.5,311.3-28,419.9,10.3,7.3,65.1,41.8,74.2,35.2l-79.7-298.6,4.7-12.4,469.7,433c3,9.9-5.2,18.2-11,25.7-246.3,317.3-683.9,22.6-771.3-280.5C18.8,172,344.3,1.9,616.9,157.1c11.1,6.3,88,57.6,76.7,71.1ZM682.1,681.3c1.7-6.6-2.7-7.7-5.7-11.5-14.8-19.2-39.9-36.5-55.6-55.7l-49.9-36.4c-2.7,3,15.8,71.8,20.9,77,13.2,13.5,70.7,18.4,90.4,26.6Z"/>
  <path class="st2" d="M682.1,681.3c-19.7-8.2-77.3-13.1-90.4-26.6-5.1-5.2-23.5-74-20.9-77l49.9,36.4c15.8,19.2,40.8,36.5,55.6,55.7,3,3.9,7.4,4.9,5.7,11.5Z"/>
</svg>