<?xml version="1.0" encoding="UTF-8"?>
<svg id="Layer_1" xmlns="http://www.w3.org/2000/svg" version="1.1" viewBox="0 0 1030.7 1028.6">
  <!-- Generator: Adobe Illustrator 29.1.0, SVG Export Plug-In . SVG Version: 2.1.0 Build 142)  -->
  <defs>
    <style>
      .st0 {
        fill: #efece1;
      }

      .st1 {
        fill: #0b0c0b;
      }

      .st2 {
        fill: #ce559f;
      }
    </style>
  </defs>
  <path class="st2" d="M593.5,1024.1l-11.5,3.8c-2.5.3-5.2-.2-7.7,0-9.8.7-24.1-3.5-30.7,3.8h-49.9c-6.6-7.3-21-3.2-30.7-3.8-2.5-.2-5.2.3-7.7,0l-11.5-3.8C56.6,966.1-133,528.9,98.9,208.8c201.2-277.7,607.7-281.8,820.9-16,249.2,310.7,62.8,769.6-326.3,831.3ZM681.8,286.8c-61.8,2.1-117.5-11.4-147.3-69.6-13.7-26.8-17.9-61.8-36.9-84-16.7,59.4-55.2,129.1-117,149.9-23.4,7.9-47.6,7.3-71.2,13.3,65.3,37.6,119.7,93.4,154.3,160.6s21.2,58.3,33.5,85.5c8.5,18.7,12.2-18.1,15.6-27.4,35.4-96.4,88.2-165.4,169.1-228.3ZM509,893.5c-16.2-57.3-47.5-116-86.4-161.3-112.7-131.4-276.2-150-254.9-362.4s21-60.6,22.5-81.6c.5-6.6-1-15.7-5.6-20.6-105,109.4-106.9,333.9-26.5,456.6,56.9,86.8,195.8,168.3,297,186.8,125.3,22.9,297-51.6,378.4-148,109.3-129.3,122.7-371.5-1.9-495.4-1.3,27.9,12.3,53.5,17.4,80.5,49.6,263.4-213.4,266.8-306,466l-33.9,79.3Z"/>
  <path class="st0" d="M493.6,1031.7h-30.7v-3.8c9.8.6,24.1-3.4,30.7,3.8Z"/>
  <path class="st0" d="M574.3,1027.9v3.8h-30.7c6.6-7.3,21-3.1,30.7-3.8Z"/>
  <path class="st0" d="M455.2,1027.9c-7.3-.8-10.9-3.8-11.5-3.8l11.5,3.8Z"/>
  <path class="st0" d="M593.5,1024.1c-.6,0-4.3,3-11.5,3.8l11.5-3.8Z"/>
  <path class="st1" d="M509,893.5l33.9-79.3c92.6-199.3,355.6-202.7,306-466-5.1-27-18.7-52.6-17.4-80.5,124.6,123.9,111.2,366.1,1.9,495.4-81.5,96.4-253.1,170.8-378.4,148-101.3-18.5-240.2-100-297-186.8-80.4-122.6-78.5-347.1,26.5-456.6,4.6,5,6.1,14,5.6,20.6-1.5,20.9-19.8,54.4-22.5,81.6-21.2,212.4,142.2,231,254.9,362.4,38.9,45.3,70.2,104,86.4,161.3Z"/>
  <path class="st1" d="M681.8,286.8c-80.9,62.9-133.7,131.9-169.1,228.3-3.4,9.3-7.1,46-15.6,27.4-12.3-27.2-19-57.2-33.5-85.5-34.6-67.2-89-123.1-154.3-160.6,23.6-5.9,47.8-5.4,71.2-13.3,61.8-20.8,100.3-90.5,117-149.9,19,22.2,23.2,57.2,36.9,84,29.8,58.2,85.5,71.7,147.3,69.6Z"/>
</svg>