<?xml version="1.0" encoding="UTF-8"?>
<svg id="Layer_1" xmlns="http://www.w3.org/2000/svg" version="1.1" viewBox="0 0 1030.7 1028.6">
  <!-- Generator: Adobe Illustrator 29.1.0, SVG Export Plug-In . SVG Version: 2.1.0 Build 142)  -->
  <defs>
    <style>
      .st0 {
        fill: #0f0705;
      }

      .st1 {
        fill: #de5a29;
      }
    </style>
  </defs>
  <path class="st1" d="M-3.3,529v-26.8c11.7-13,6.1-31.6,8.1-47.4C53.6,85.5,461.6-119.1,784.8,75.7s332.6,615.1,59.5,836C527.2,1168.2,59,978.2,4.8,576.4c-2.1-15.7,3.6-34.3-8.1-47.4ZM363,147.1c-12.6,2.8-21.7,15.1-22,27.8l1.8,296.9c3.5,11.3,19.8,20.8,31.1,22.5,16.8,2.6,85.4,2.3,100.6-2.3,16.3-5,26.7-21.2,27.4-37.7-6.1-86.2,8.1-183.2.2-268.1-1.8-18.8-7.8-36.5-29.1-39.8-16.4-2.6-94.8-2.8-110,.6ZM558.2,147.1c-12.6,2.8-21.7,15.1-22,27.8l1.8,296.9c5.9,13.6,16.7,20.4,31.2,22.4s81.1,2.9,98.3-.5c20.3-4.1,27.5-20.3,29.6-39.3l-1.7-285.4c-5.2-11-14.8-20.6-27.2-22.5s-94.8-2.8-110,.6ZM187.2,193.2c-26,4.1-33.9,17.9-36.9,43.4-5.9,49.6-4.9,159.4-.6,210.2,1.8,21.1,8.9,43.7,32.9,47.5s92.8,2.3,105.2-1.5,24.8-23.3,26.6-38.5c5.7-49.8,4.9-167.7.2-218.3-2-21.5-10.4-38.8-33.6-43s-74.2-2.9-93.8.1ZM753.5,193.1c-23.2,4.2-31.2,21.4-33.4,43.2-5.3,52.1-4.7,157.9-.2,210.6,1.8,21.1,8.9,43.7,32.9,47.5,16.8,2.7,89.3,2.3,104.4-2.3,19.6-6,25.5-23,27.4-41.5,5.2-52.1,4.7-157.9.2-210.6-1.4-16.3-4.1-32.9-19.6-41.6-15.3-8.6-92.3-8.7-111.7-5.2ZM170.3,545.7c-12,11.4-18.8,34.1-20.4,50.4-3.7,37.2-4.4,173.2,6.4,204s23.5,33.3,46.9,37.3c28.4,4.9,122.7,5.4,146.9-6.6,53.2-26.4,17.6-95.7,50.2-129.7,30.3-31.5,87.6,4,126.6-41.8,29.8-35,13.8-116-35.4-129.4-89.4,6.5-199.2-11.7-286.3-1-10.5,1.3-27.3,9.5-34.9,16.7ZM627.2,529.9c-31.5,5.3-49.6,36.5-52.5,66.1-4.2,41.8,14.2,88.9-28.7,116.7-30.2,19.6-67.8-6.7-103.3,23-39.2,32.9-8.1,72.1-29.4,108.4-18.1,30.9-35.6,22.7-57.9,33.9-16.3,8.2-14.3,68.2-2.8,73.8l330.3,1.1c16.6-4.9,8.6-49.1,13-67.4,22.3-92.4,177,0,188.8-98.2,5.3-44.4,4.5-157.7.1-203.2-2.9-29.5-26-52.1-55.7-55.3-39.5-4.2-164.7-5.3-201.9.9Z"/>
  <path class="st0" d="M627.2,529.9c37.2-6.3,162.4-5.2,201.9-.9,29.6,3.2,52.8,25.8,55.7,55.3,4.4,45.4,5.2,158.7-.1,203.2-11.8,98.3-166.6,5.8-188.8,98.2-4.4,18.3,3.6,62.5-13,67.4l-330.3-1.1c-11.5-5.6-13.6-65.6,2.8-73.8,22.4-11.3,39.9-3.1,57.9-33.9,21.3-36.3-9.9-75.5,29.4-108.4,35.5-29.7,73.1-3.5,103.3-23,42.9-27.8,24.5-75,28.7-116.7,3-29.7,21-60.8,52.5-66.1Z"/>
  <path class="st0" d="M170.3,545.7c7.6-7.2,24.5-15.4,34.9-16.7,87-10.7,196.8,7.5,286.3,1,49.3,13.4,65.3,94.4,35.4,129.4-39,45.8-96.3,10.3-126.6,41.8-32.6,34,3,103.3-50.2,129.7-24.2,12-118.5,11.5-146.9,6.6-23.4-4-38.9-14.5-46.9-37.3s-10.1-166.8-6.4-204c1.6-16.3,8.5-39,20.4-50.4Z"/>
  <path class="st0" d="M558.2,147.1c15.1-3.4,93.5-3.2,110-.6s22,11.6,27.2,22.5l1.7,285.4c-2.1,19-9.3,35.2-29.6,39.3-17.1,3.4-80.1,3.1-98.3.5s-25.2-8.8-31.2-22.4l-1.8-296.9c.3-12.7,9.3-25,22-27.8Z"/>
  <path class="st0" d="M363,147.1c15.1-3.4,93.5-3.2,110-.6,21.3,3.4,27.3,21.1,29.1,39.8,7.9,84.9-6.2,181.9-.2,268.1-.7,16.5-11.1,32.7-27.4,37.7-15.2,4.6-83.7,4.9-100.6,2.3-11.2-1.7-27.5-11.2-31.1-22.5l-1.8-296.9c.3-12.7,9.3-25,22-27.8Z"/>
  <path class="st0" d="M187.2,193.2c19.5-3,74.7-3.5,93.8-.1s31.6,21.4,33.6,43c4.8,50.6,5.5,168.6-.2,218.3-1.7,15.2-11,33.7-26.6,38.5s-90.5,3.8-105.2,1.5c-23.9-3.8-31.1-26.4-32.9-47.5-4.3-50.8-5.3-160.6.6-210.2s10.9-39.4,36.9-43.4Z"/>
  <path class="st0" d="M753.5,193.1c19.3-3.5,96.4-3.4,111.7,5.2,15.5,8.7,18.2,25.4,19.6,41.6,4.5,52.7,5.1,158.5-.2,210.6-1.9,18.5-7.8,35.6-27.4,41.5-15.1,4.6-87.6,5-104.4,2.3-23.9-3.8-31.1-26.4-32.9-47.5-4.5-52.7-5.1-158.5.2-210.6,2.2-21.8,10.2-38.9,33.4-43.2Z"/>
</svg>