<?xml version="1.0" encoding="UTF-8"?>
<svg id="Layer_1" xmlns="http://www.w3.org/2000/svg" version="1.1" viewBox="0 0 1030.7 1028.6">
  <!-- Generator: Adobe Illustrator 29.1.0, SVG Export Plug-In . SVG Version: 2.1.0 Build 142)  -->
  <defs>
    <style>
      .st0 {
        fill: #0f0705;
      }

      .st1 {
        fill: #ec452a;
      }
    </style>
  </defs>
  <path class="st1" d="M457.1,1c519.5-46,782.1,597,378.9,916.5C466.3,1210.4-72.3,891,5.9,425.3,42.2,209.2,236.9,20.5,457.1,1ZM853.4,383.8c-21.7,66.2-104.4,110.5-171,115.1-45,3.1-25.7-17.8-24.7-47.8,5-156.3-31.8-318.5-195.9-374.6,10.1,24.1,28.9,43.6,36.3,69.2,22.7,78.3-68.6,117.7-117.1,163-69.9,65.3-111.5,136.4-65.3,232.4-93.9-48.3-87.7-143.8-53.8-230.4-106.1,76-146.7,193.5-91.6,316.2l60.9,98.5c-50.3-10.8-89.6-44.2-130.5-72.9,25.2,125.8,119,233.4,239.9,276.5,251.6,89.9,518.4-41.5,594.3-296.7,4.2-14.1,10-30.3,8.6-45.2-60.1,41.5-123.8,93.7-201.6,88.3-2.5-9,2.3-6.5,4.9-8.8,60.5-53.3,166.4-142.4,139.9-234-2.3-7.9-24.8-55.4-33.4-49.1Z"/>
  <path class="st0" d="M853.4,383.8c8.6-6.3,31.1,41.1,33.4,49.1,26.5,91.6-79.4,180.7-139.9,234-2.6,2.3-7.4-.2-4.9,8.8,77.8,5.4,141.5-46.8,201.6-88.3,1.4,14.9-4.4,31.1-8.6,45.2-75.9,255.1-342.7,386.6-594.3,296.7-120.9-43.2-214.6-150.7-239.9-276.5,40.8,28.8,80.1,62.1,130.5,72.9l-60.9-98.5c-55.1-122.7-14.6-240.2,91.6-316.2-33.9,86.6-40.2,182.1,53.8,230.4-46.2-96-4.6-167.1,65.3-232.4,48.5-45.3,139.8-84.8,117.1-163-7.4-25.7-26.3-45.1-36.3-69.2,164.1,56.1,200.9,218.2,195.9,374.6-.9,30-20.3,50.9,24.7,47.8,66.6-4.7,149.3-48.9,171-115.1ZM534.7,552.8c-37.9-5.5-126.2,45.8-129.7,83.4-3.6,38.8,84.1,84.7,29.6,133.2-16.3,14.5-15.8-12.2-24.9-24.4-15.3-20.8-46.8-25.5-70.8-23.2l24.7,23.3c38.6,63-62.6,72.3-13.2,139.9s215.9,68.7,287.7,26.6c73-42.7-6.4-98.2-3.9-157.3,1.3-29.5,21.9-52.8,42.5-71-45.7-1-80.9,22.2-111.3,53.7-2.7-19.4-4.9-43.2-14.6-60.3-9.9-17.5-47.3-41.9-50.1-57.7-4.5-25,37-64,34-66.3Z"/>
  <path class="st1" d="M534.7,552.8c3.1,2.2-38.5,41.2-34,66.3,2.9,15.8,40.3,40.2,50.1,57.7,9.7,17.2,11.9,40.9,14.6,60.3,30.4-31.5,65.6-54.8,111.3-53.7-20.6,18.1-41.2,41.4-42.5,71-2.5,59.1,76.9,114.5,3.9,157.3-71.8,42-234.8,45.7-287.7-26.6s51.8-76.9,13.2-139.9l-24.7-23.3c24-2.2,55.5,2.5,70.8,23.2s8.6,38.9,24.9,24.4c54.5-48.5-33.2-94.4-29.6-133.2,3.5-37.6,91.8-89,129.7-83.4Z"/>
</svg>