<?xml version="1.0" encoding="UTF-8"?>
<svg id="Layer_1" xmlns="http://www.w3.org/2000/svg" version="1.1" viewBox="0 0 1030.7 1028.6">
  <!-- Generator: Adobe Illustrator 29.1.0, SVG Export Plug-In . SVG Version: 2.1.0 Build 142)  -->
  <defs>
    <style>
      .st0 {
        fill: #0f0705;
      }

      .st1 {
        fill: #22a34c;
      }

      .st2 {
        fill: #9aa1a8;
      }
    </style>
  </defs>
  <path class="st2" d="M562.3,0v3.8c-28-1.6-64.1-1.6-92.2,0V0h92.2Z"/>
  <path class="st1" d="M470.1,3.8c28-1.6,64.1-1.6,92.2,0,352.6,19.9,568.7,413.8,421.8,731-186.9,403.4-771.5,390.8-944.7-18C-94,401.9,126.8,23.2,470.1,3.8ZM501.3,853c119.1-20.5,286-37.2,371.8-133.1,119.1-133.1-29.9-401.2-111.1-526-19-29.2-50.6-79.4-73.1-103.5-5.4-5.8-13.3-15.4-21.5-16.3-11.4-1.3-63.6,22-78.1,27.9-156,63.3-364.7,188.1-437.3,346-59.5,129.3-26.2,270.4,104.4,336.1,51.8,26.1,104.2,26.2,120.6,94.5,8.6,35.9-3.2,64.4,42.4,76.6,13.1,3.5,60.4,12.3,72.5,12.4,4.8,0,7.3,0,11.3-3.3,16.1-13.2-9.5-88.7-1.8-111.2Z"/>
  <path class="st0" d="M501.3,853c-7.8,22.5,17.9,98,1.8,111.2-3.9,3.2-6.5,3.3-11.3,3.3-12.1,0-59.4-8.8-72.5-12.4-45.6-12.2-33.8-40.7-42.4-76.6-16.4-68.3-68.8-68.4-120.6-94.5-130.5-65.8-163.8-206.8-104.4-336.1,72.6-158,281.3-282.8,437.3-346,14.6-5.9,66.8-29.2,78.1-27.9,8.2.9,16.1,10.6,21.5,16.3,22.6,24.1,54.2,74.3,73.1,103.5,81.2,124.9,230.3,392.9,111.1,526s-252.7,112.6-371.8,133.1ZM591,203.5v3.8c2.5-1.3,2.5-2.6,0-3.8ZM539.2,353.3l48-142c-23.7,11.9-81.7,134.8-92.9,137.7-9.6,2.4-39.6-22.1-51.6-27.9-28.9-13.8-56-20.2-87.8-13.9-2.1,11.1,3.3,6.1,8.4,8.7,71.6,35,123.9,67.4,79.8,156.4-19.1-7.1-33.3-21.8-52.3-30.2-42.4-18.7-79.9-17.7-124.2-6.2-4.4,1.1-12.5-.3-11.5,5.6,52.8,4.4,129.9,34.7,159.1,80.8s-9.8,71-9.4,99.7c-23.3-5.1-42.1-19.9-66.1-27.9-46.6-15.6-86.3-18.3-133.5-2.7l66.1,16.4c47.9,18.4,117.5,54.8,128,110.1,4.2,22-.2,44.3,2.7,66.4s17.7,48.3,25.9,72c5.5,5.4,7-.3,7.6-5.7,3.9-32.4-.5-85.8,8.5-114.5s37.8-35.3,49.4-42.7c82.6-53.2,184.5-66.7,279.9-46.4-45.9-39-128.1-36.8-185.7-32.2-45.7,3.7-85.6,22.5-129.1,30.2-.3-43.1,9.4-98.1,51.1-119.8,42.3-22.1,126.3-45.3,173.6-45.3l90.2,11.5-60.6-29.6c-45-14.1-86-15.8-132.2-7.6-29.2,5.2-55.5,17.6-83.7,25.7,10-108.8,147-128.6,234.2-138.3l-29.9-10.4c-55.5-13.7-110.2,3.9-162,21.9Z"/>
  <path class="st1" d="M539.2,353.3c51.8-18,106.6-35.6,162-21.9l29.9,10.4c-87.2,9.6-224.2,29.5-234.2,138.3,28.1-8.1,54.5-20.6,83.7-25.7,46.2-8.2,87.2-6.4,132.2,7.6l60.6,29.6-90.2-11.5c-47.3,0-131.3,23.2-173.6,45.3-41.7,21.8-51.4,76.8-51.1,119.8,43.5-7.8,83.5-26.6,129.1-30.2,57.5-4.7,139.7-6.8,185.7,32.2-95.4-20.4-197.3-6.9-279.9,46.4-11.6,7.5-45.7,30.7-49.4,42.7-8.9,28.7-4.6,82.1-8.5,114.5s-2.2,11-7.6,5.7c-8.2-23.8-22.5-46.5-25.9-72s1.4-44.4-2.7-66.4c-10.5-55.3-80-91.7-128-110.1l-66.1-16.4c47.1-15.6,86.9-12.8,133.5,2.7,24,8,42.8,22.9,66.1,27.9-.3-28.7,25.2-74.8,9.4-99.7-29.2-46.2-106.3-76.5-159.1-80.8-.9-5.9,7.2-4.5,11.5-5.6,44.3-11.5,81.8-12.4,124.2,6.2,19,8.4,33.2,23.1,52.3,30.2,44.1-89-8.2-121.4-79.8-156.4-5.2-2.5-10.6,2.5-8.4-8.7,31.8-6.3,59,0,87.8,13.9s42,30.3,51.6,27.9c11.2-2.9,69.3-125.8,92.9-137.7l-48,142Z"/>
  <path class="st1" d="M591,203.5c2.5,1.3,2.5,2.6,0,3.8v-3.8Z"/>
</svg>