<?xml version="1.0" encoding="UTF-8"?>
<svg id="Layer_1" xmlns="http://www.w3.org/2000/svg" version="1.1" viewBox="0 0 1030.7 1028.6">
  <!-- Generator: Adobe Illustrator 29.1.0, SVG Export Plug-In . SVG Version: 2.1.0 Build 142)  -->
  <defs>
    <style>
      .st0 {
        fill: #0b0c0b;
      }

      .st1 {
        fill: #9aa1a8;
      }
    </style>
  </defs>
  <path class="st1" d="M459.8,2.3c365.9-30,648.1,289.7,552.6,648.6-119,447-737.6,514.5-953.1,106.8C-109.6,438.3,97.7,32,459.8,2.3ZM629.5,285.4h132.5c1.4,0,22.2,11.6,24.8,13.6,10.4,8,20.8,25.9,27.7,37.5,5.7,9.5,37.1,68,37.7,74,.6,5.7-.2,10.8-3,15.8l-66.1,120.1c26.2.4,52.6-.4,78.9-.1s20.4,7.3,30.1-.2c23.8-42.6,52.1-87.6,63.8-135.6-39.8-71.8-81.9-143.2-126.4-211.8-17.9-13-77.7-8.8-102.2-9.2s-26.7-8.3-43.1-1.4l-13,17.9-41.6,79.4ZM410.6,285.4c-4-14.9-42.9-92.3-52.6-95.3-32.5-9.8-93.6,9.7-129.6,3.3l-23.1,11.5-117.1,205.5c-1.3,8.5-.5,16.6,1.6,24.9s41.4,85.9,47.4,94.7c18.4,27.2,20.5,16.3,44.7,16.4,26.3,0,52.6.3,78.9.1-18.9-53.4-78.8-94.8-61.6-155.7,4.4-15.5,44.7-80.1,56-93.7s12.6-11.7,15.2-11.7h140.1ZM733.2,377.5h-433.9l216.9,376.2,216.9-376.2ZM675.5,734.6c-8.7-1.5-12,7.1-16.2,12.5-46.4,60.8-32.7,120.1-131.8,118.1-8.2-.2-15.4-3.6-22.9-3.9-16.8-.8-48.1,3.8-61-4.3-17.7-11-59-104.4-75.3-126.3-10.8,15.5-59.2,83-57,97.1,3.4,21.5,62.5,83.2,70.6,110.1l13.1,10,243.2.9c23.4-5.3,71.9-97.2,87.3-120.5l-50-93.7Z"/>
  <polygon class="st0" points="733.2 377.5 516.2 753.8 299.3 377.5 733.2 377.5"/>
  <path class="st0" d="M675.5,734.6l50,93.7c-15.4,23.3-63.8,115.2-87.3,120.5l-243.2-.9-13.1-10c-8.2-26.9-67.2-88.6-70.6-110.1-2.2-14.1,46.1-81.6,57-97.1,16.3,21.9,57.7,115.3,75.3,126.3,12.9,8.1,44.2,3.5,61,4.3,7.5.4,14.7,3.8,22.9,3.9,99.1,2,85.4-57.4,131.8-118.1,4.2-5.5,7.5-14,16.2-12.5Z"/>
  <path class="st0" d="M629.5,285.4l41.6-79.4,13-17.9c16.4-6.9,28,1.2,43.1,1.4,24.4.4,84.2-3.8,102.2,9.2,44.5,68.6,86.5,140,126.4,211.8-11.6,48-39.9,93-63.8,135.6-9.7,7.5-19.5.3-30.1.2-26.3-.2-52.6.6-78.9.1l66.1-120.1c2.7-5,3.5-10.2,3-15.8-.6-6-32-64.5-37.7-74-7-11.6-17.4-29.5-27.7-37.5-2.6-2-23.3-13.6-24.8-13.6h-132.5Z"/>
  <path class="st0" d="M410.6,285.4h-140.1c-2.6,0-12.7,8.6-15.2,11.7-11.3,13.7-51.6,78.2-56,93.7-17.2,60.9,42.7,102.3,61.6,155.7-26.2.2-52.6,0-78.9-.1-24.2,0-26.3,10.8-44.7-16.4s-45.2-86.6-47.4-94.7-2.9-16.3-1.6-24.9l117.1-205.5,23.1-11.5c36,6.4,97.1-13.1,129.6-3.3,9.7,2.9,48.5,80.3,52.6,95.3Z"/>
</svg>