<?xml version="1.0" encoding="UTF-8"?>
<svg id="Layer_1" xmlns="http://www.w3.org/2000/svg" version="1.1" viewBox="0 0 1030.7 1028.6">
  <!-- Generator: Adobe Illustrator 29.1.0, SVG Export Plug-In . SVG Version: 2.1.0 Build 142)  -->
  <defs>
    <style>
      .st0 {
        fill: #9154a0;
      }

      .st1 {
        fill: #04070a;
      }
    </style>
  </defs>
  <path class="st0" d="M468.8,1.1c410-33.6,698.2,399.5,498.1,763.1-179.7,326.4-637.4,356.9-863.7,61C-141.8,505,70.4,33.8,468.8,1.1ZM484.1,212.3c-196.8,15.1-332,147.1-418.4,315-19.2,37.4-19.5,43.2,2.9,79,208.6,333.1,604.3,384.8,847.9,57.6,12.7-17,46.4-64.1,53-81.4,9.9-25.7-15.4-65-28.5-88.4-92.1-164.7-259.4-297-456.9-281.9Z"/>
  <path class="st1" d="M484.1,212.3c197.5-15.2,364.9,117.2,456.9,281.9,13.1,23.4,38.4,62.8,28.5,88.4-6.7,17.3-40.3,64.4-53,81.4-243.6,327.1-639.2,275.5-847.9-57.6-22.4-35.8-22.2-41.6-2.9-79,86.4-167.9,221.6-299.9,418.4-315ZM381.2,334.1c-40.2,8.6-86.1,41.6-117.2,69-27,23.8-111.9,122.7-113.4,155.7s25.6,48.2,37.1,62.9c171.3,218,448.4,237.2,633.2,23.5,10.3-11.9,49.2-61.6,53.5-73.2,7.7-20.7-23.9-63.1-37-81.7-31.5-44.5-77.9-92.2-123.2-122.5-21.4-14.3-49.7-33.7-75.7-33.6,95.9,75.4,130.3,202,67.3,311.1-67.5,116.7-227.5,150.5-334,65.1-123.7-99.1-113.7-282,9.5-376.2ZM408.1,553c25.6,74.9,106.7,102.6,169,48,78.5-68.9,15.9-201.7-88.3-182.4,4.1,13.1,15,22,20,35.7,22.8,62.6-38,121.6-100.6,98.7Z"/>
  <path class="st0" d="M381.2,334.1c-123.3,94.2-133.2,277.1-9.5,376.2,106.5,85.4,266.6,51.6,334-65.1,63-109,28.6-235.7-67.3-311.1,26.1,0,54.3,19.3,75.7,33.6,45.4,30.3,91.7,78,123.2,122.5,13.2,18.6,44.7,61,37,81.7s-43.2,61.2-53.5,73.2c-184.8,213.8-461.9,194.5-633.2-23.5-11.5-14.7-37.9-45.3-37.1-62.9,1.5-33,86.4-131.9,113.4-155.7,31.2-27.4,77-60.3,117.2-69Z"/>
  <path class="st0" d="M408.1,553c62.6,22.9,123.4-36.1,100.6-98.7-5-13.7-15.9-22.6-20-35.7,104.2-19.3,166.8,113.6,88.3,182.4-62.2,54.6-143.4,26.8-169-48Z"/>
</svg>