<?xml version="1.0" encoding="UTF-8"?>
<svg id="Layer_1" xmlns="http://www.w3.org/2000/svg" version="1.1" viewBox="0 0 1030.7 1028.6">
  <!-- Generator: Adobe Illustrator 29.1.0, SVG Export Plug-In . SVG Version: 2.1.0 Build 142)  -->
  <defs>
    <style>
      .st0 {
        fill: #04070a;
      }

      .st1 {
        fill: #258ccc;
      }
    </style>
  </defs>
  <path class="st1" d="M475.3.7c423.2-32.3,708,441.1,470.8,797.2-201.1,301.9-643.9,310.8-853.3,13.1C-137.6,483.3,79.3,30.9,475.3.7ZM829.3,176.3c-59.5-2.1-118.9,6.2-177.3,16.5-206.2,36.4-503.8,134.1-524.8,381.4-23.2,272.7,323,404.8,542.9,327.9s134.4-87.8,124.7-186.3c-10.6-108.4-114.2-172.1-161.9-260.5-56.9-105.4-3.5-180.6,90.2-233.7l106.3-45.4Z"/>
  <path class="st0" d="M829.3,176.3l-106.3,45.4c-93.7,53-147.1,128.3-90.2,233.7,47.7,88.4,151.3,152.1,161.9,260.5,9.7,98.5-34.6,154.8-124.7,186.3-219.9,76.9-566-55.2-542.9-327.9,21-247.2,318.6-345,524.8-381.4,58.4-10.3,117.9-18.7,177.3-16.5ZM509.3,815c-9.6-11-46-34.8-59.9-41.8-29.8-14.9-118.6-40-144.2-17.2-26.8,23.8,1.8,51.4,21.5,67,38.6,30.5,105.9,56,155.4,52.3,39.4-2.9,54.8-28.9,27.3-60.3Z"/>
  <path class="st1" d="M509.3,815c27.5,31.3,12.1,57.3-27.3,60.3-49.5,3.7-116.8-21.8-155.4-52.3-19.7-15.6-48.3-43.2-21.5-67,25.7-22.9,114.5,2.3,144.2,17.2s50.3,30.9,59.9,41.8Z"/>
</svg>